<svg xmlns="http://www.w3.org/2000/svg" width="700" height="520" viewBox="0 0 700 520" fill="none">
  <defs>
    <radialGradient id="p" cx="0" cy="0" r="1" gradientUnits="userSpaceOnUse" gradientTransform="translate(350 280) rotate(90) scale(240 320)">
      <stop stop-color="#C9B8A8" stop-opacity="0.28"/>
      <stop offset="1" stop-color="#C9B8A8" stop-opacity="0"/>
    </radialGradient>
    <filter id="soft" x="-20%" y="-20%" width="140%" height="140%">
      <feGaussianBlur stdDeviation="2"/>
    </filter>
  </defs>
  <ellipse cx="350" cy="300" rx="320" ry="220" fill="url(#p)"/>
  <!-- Lotus-like minimal strokes -->
  <path d="M350 130c-22 38-36 82-36 128 0 28 6 54 18 78 8 16 12 30 18 52 6-22 10-36 18-52 12-24 18-50 18-78 0-46-14-90-36-128Z"
        stroke="#6B9080" stroke-opacity="0.22" stroke-width="10" stroke-linecap="round" stroke-linejoin="round" filter="url(#soft)"/>
  <path d="M220 210c10 52 38 96 82 124 20 12 40 20 62 30-8-20-14-38-14-60 0-56-22-108-60-142-20-18-44-30-70-36Z"
        stroke="#6B9080" stroke-opacity="0.16" stroke-width="9" stroke-linecap="round" stroke-linejoin="round" filter="url(#soft)"/>
  <path d="M480 210c-10 52-38 96-82 124-20 12-40 20-62 30 8-20 14-38 14-60 0-56 22-108 60-142 20-18 44-30 70-36Z"
        stroke="#6B9080" stroke-opacity="0.16" stroke-width="9" stroke-linecap="round" stroke-linejoin="round" filter="url(#soft)"/>
  <path d="M150 320c28 44 72 76 126 90 28 8 54 10 86 12-22-14-40-28-54-48-36-46-92-74-158-78Z"
        stroke="#6B9080" stroke-opacity="0.12" stroke-width="8" stroke-linecap="round" stroke-linejoin="round" filter="url(#soft)"/>
  <path d="M550 320c-28 44-72 76-126 90-28 8-54 10-86 12 22-14 40-28 54-48 36-46 92-74 158-78Z"
        stroke="#6B9080" stroke-opacity="0.12" stroke-width="8" stroke-linecap="round" stroke-linejoin="round" filter="url(#soft)"/>
</svg>
